# xmcd
#
# Track frame offsets: 
#        150
#        18560
#        39639
#        57457
#        76827
#        94849
#        115802
#        135003
#        150734
#        169879
#        187868
#
# Disc length: 2728 seconds
#
# Revision: 0
# Processed by: cddbd v1.5.2PL0 Copyright (c) Steve Scherf et al.
# Submitted via: ExactAudioCopy v0.99pb4
#
DISCID=810aa60b
DTITLE=Brandon Clark Band - Tall
DYEAR=2008
DGENRE=Country Rock
TTITLE0=Writing on The Wall
TTITLE1=Try A Little Loneliness
TTITLE2=Another Bottle
TTITLE3=She's Got No Wings
TTITLE4=This Hangover Ain't Over
TTITLE5=Along For A Ride
TTITLE6=18 Wheeler
TTITLE7=Wandering Eyes
TTITLE8=Wagon Wheel
TTITLE9=So Far Gone
TTITLE10=After The Sun Goes Down
EXTD=
EXTT0=
EXTT1=
EXTT2=
EXTT3=
EXTT4=
EXTT5=
EXTT6=
EXTT7=
EXTT8=
EXTT9=
EXTT10=
PLAYORDER=
